<svg xmlns="http://www.w3.org/2000/svg" viewBox="0 0 32 32" width="32" height="32" shape-rendering="crispEdges" role="img" aria-label="VSMP emblem"><rect x="12" y="0" width="8" height="1" fill="#0A1236"/><rect x="9" y="1" width="3" height="1" fill="#0A1236"/><rect x="12" y="1" width="8" height="1" fill="#7FB3FF"/><rect x="20" y="1" width="3" height="1" fill="#0A1236"/><rect x="7" y="2" width="2" height="1" fill="#0A1236"/><rect x="9" y="2" width="5" height="1" fill="#7FB3FF"/><rect x="14" y="2" width="4" height="1" fill="#0B1445"/><rect x="18" y="2" width="2" height="1" fill="#7FB3FF"/><rect x="20" y="2" width="3" height="1" fill="#2F6FED"/><rect x="23" y="2" width="2" height="1" fill="#0A1236"/><rect x="6" y="3" width="2" height="1" fill="#0A1236"/><rect x="8" y="3" width="3" height="1" fill="#7FB3FF"/><rect x="11" y="3" width="2" height="1" fill="#0B1445"/><rect x="13" y="3" width="6" height="1" fill="#0E1A5A"/><rect x="19" y="3" width="2" height="1" fill="#0B1445"/><rect x="21" y="3" width="3" height="1" fill="#2F6FED"/><rect x="24" y="3" width="2" height="1" fill="#0A1236"/><rect x="5" y="4" width="1" height="1" fill="#0A1236"/><rect x="6" y="4" width="3" height="1" fill="#7FB3FF"/><rect x="9" y="4" width="1" height="1" fill="#0B1445"/><rect x="10" y="4" width="1" height="1" fill="#0E1A5A"/><rect x="11" y="4" width="1" height="1" fill="#FFC4D6"/><rect x="12" y="4" width="1" height="1" fill="#FF8DA1"/><rect x="13" y="4" width="5" height="1" fill="#0E1A5A"/><rect x="18" y="4" width="4" height="1" fill="#101760"/><rect x="22" y="4" width="1" height="1" fill="#0B1445"/><rect x="23" y="4" width="3" height="1" fill="#2F6FED"/><rect x="26" y="4" width="1" height="1" fill="#0A1236"/><rect x="4" y="5" width="1" height="1" fill="#0A1236"/><rect x="5" y="5" width="2" height="1" fill="#7FB3FF"/><rect x="7" y="5" width="2" height="1" fill="#0B1445"/><rect x="9" y="5" width="8" height="1" fill="#0E1A5A"/><rect x="17" y="5" width="6" height="1" fill="#101760"/><rect x="23" y="5" width="2" height="1" fill="#0B1445"/><rect x="25" y="5" width="2" height="1" fill="#2F6FED"/><rect x="27" y="5" width="1" height="1" fill="#0A1236"/><rect x="3" y="6" width="1" height="1" fill="#0A1236"/><rect x="4" y="6" width="2" height="1" fill="#7FB3FF"/><rect x="6" y="6" width="1" height="1" fill="#0B1445"/><rect x="7" y="6" width="1" height="1" fill="#7FA8FF"/><rect x="8" y="6" width="4" height="1" fill="#0E1A5A"/><rect x="12" y="6" width="8" height="1" fill="#050A1E"/><rect x="20" y="6" width="3" height="1" fill="#101760"/><rect x="23" y="6" width="1" height="1" fill="#FFC4D6"/><rect x="24" y="6" width="1" height="1" fill="#101760"/><rect x="25" y="6" width="1" height="1" fill="#0B1445"/><rect x="26" y="6" width="2" height="1" fill="#2F6FED"/><rect x="28" y="6" width="1" height="1" fill="#0A1236"/><rect x="2" y="7" width="2" height="1" fill="#0A1236"/><rect x="4" y="7" width="1" height="1" fill="#7FB3FF"/><rect x="5" y="7" width="1" height="1" fill="#0B1445"/><rect x="6" y="7" width="3" height="1" fill="#0E1A5A"/><rect x="9" y="7" width="3" height="1" fill="#050A1E"/><rect x="12" y="7" width="2" height="1" fill="#E8F6FF"/><rect x="14" y="7" width="5" height="1" fill="#4DB5FF"/><rect x="19" y="7" width="4" height="1" fill="#050A1E"/><rect x="23" y="7" width="1" height="1" fill="#7FA8FF"/><rect x="24" y="7" width="1" height="1" fill="#FF8DA1"/><rect x="25" y="7" width="1" height="1" fill="#101760"/><rect x="26" y="7" width="1" height="1" fill="#0B1445"/><rect x="27" y="7" width="1" height="1" fill="#1E4BB8"/><rect x="28" y="7" width="2" height="1" fill="#0A1236"/><rect x="2" y="8" width="1" height="1" fill="#0A1236"/><rect x="3" y="8" width="2" height="1" fill="#7FB3FF"/><rect x="5" y="8" width="1" height="1" fill="#0B1445"/><rect x="6" y="8" width="2" height="1" fill="#0E1A5A"/><rect x="8" y="8" width="2" height="1" fill="#050A1E"/><rect x="10" y="8" width="2" height="1" fill="#E8F6FF"/><rect x="12" y="8" width="1" height="1" fill="#9ADBFF"/><rect x="13" y="8" width="4" height="1" fill="#4DB5FF"/><rect x="17" y="8" width="1" height="1" fill="#FF8DA1"/><rect x="18" y="8" width="3" height="1" fill="#4DB5FF"/><rect x="21" y="8" width="1" height="1" fill="#3A8BF0"/><rect x="22" y="8" width="2" height="1" fill="#050A1E"/><rect x="24" y="8" width="2" height="1" fill="#101760"/><rect x="26" y="8" width="1" height="1" fill="#0B1445"/><rect x="27" y="8" width="2" height="1" fill="#1E4BB8"/><rect x="29" y="8" width="1" height="1" fill="#0A1236"/><rect x="1" y="9" width="1" height="1" fill="#0A1236"/><rect x="2" y="9" width="2" height="1" fill="#7FB3FF"/><rect x="4" y="9" width="1" height="1" fill="#0B1445"/><rect x="5" y="9" width="2" height="1" fill="#0E1A5A"/><rect x="7" y="9" width="2" height="1" fill="#050A1E"/><rect x="9" y="9" width="1" height="1" fill="#E8F6FF"/><rect x="10" y="9" width="2" height="1" fill="#9ADBFF"/><rect x="12" y="9" width="8" height="1" fill="#4DB5FF"/><rect x="20" y="9" width="3" height="1" fill="#3A8BF0"/><rect x="23" y="9" width="2" height="1" fill="#050A1E"/><rect x="25" y="9" width="2" height="1" fill="#101760"/><rect x="27" y="9" width="1" height="1" fill="#0B1445"/><rect x="28" y="9" width="2" height="1" fill="#1E4BB8"/><rect x="30" y="9" width="1" height="1" fill="#0A1236"/><rect x="1" y="10" width="1" height="1" fill="#0A1236"/><rect x="2" y="10" width="2" height="1" fill="#7FB3FF"/><rect x="4" y="10" width="2" height="1" fill="#0E1A5A"/><rect x="6" y="10" width="2" height="1" fill="#050A1E"/><rect x="8" y="10" width="1" height="1" fill="#E8F6FF"/><rect x="9" y="10" width="2" height="1" fill="#9ADBFF"/><rect x="11" y="10" width="8" height="1" fill="#4DB5FF"/><rect x="19" y="10" width="5" height="1" fill="#3A8BF0"/><rect x="24" y="10" width="2" height="1" fill="#050A1E"/><rect x="26" y="10" width="2" height="1" fill="#1A1470"/><rect x="28" y="10" width="2" height="1" fill="#1E4BB8"/><rect x="30" y="10" width="1" height="1" fill="#0A1236"/><rect x="1" y="11" width="1" height="1" fill="#0A1236"/><rect x="2" y="11" width="1" height="1" fill="#7FB3FF"/><rect x="3" y="11" width="1" height="1" fill="#0B1445"/><rect x="4" y="11" width="1" height="1" fill="#0E1A5A"/><rect x="5" y="11" width="2" height="1" fill="#050A1E"/><rect x="7" y="11" width="3" height="1" fill="#9ADBFF"/><rect x="10" y="11" width="8" height="1" fill="#4DB5FF"/><rect x="18" y="11" width="2" height="1" fill="#3A8BF0"/><rect x="20" y="11" width="1" height="1" fill="#FF8DA1"/><rect x="21" y="11" width="4" height="1" fill="#3A8BF0"/><rect x="25" y="11" width="2" height="1" fill="#050A1E"/><rect x="27" y="11" width="1" height="1" fill="#1A1470"/><rect x="28" y="11" width="1" height="1" fill="#0B1445"/><rect x="29" y="11" width="1" height="1" fill="#1E4BB8"/><rect x="30" y="11" width="1" height="1" fill="#0A1236"/><rect x="0" y="12" width="1" height="1" fill="#0A1236"/><rect x="1" y="12" width="2" height="1" fill="#7FB3FF"/><rect x="3" y="12" width="1" height="1" fill="#0B1445"/><rect x="4" y="12" width="1" height="1" fill="#0E1A5A"/><rect x="5" y="12" width="1" height="1" fill="#050A1E"/><rect x="6" y="12" width="3" height="1" fill="#9ADBFF"/><rect x="9" y="12" width="3" height="1" fill="#4DB5FF"/><rect x="12" y="12" width="1" height="1" fill="#F5B83D"/><rect x="13" y="12" width="4" height="1" fill="#4DB5FF"/><rect x="17" y="12" width="8" height="1" fill="#3A8BF0"/><rect x="25" y="12" width="1" height="1" fill="#5B5BEA"/><rect x="26" y="12" width="1" height="1" fill="#050A1E"/><rect x="27" y="12" width="1" height="1" fill="#1A1470"/><rect x="28" y="12" width="1" height="1" fill="#0B1445"/><rect x="29" y="12" width="2" height="1" fill="#1E4BB8"/><rect x="31" y="12" width="1" height="1" fill="#0A1236"/><rect x="0" y="13" width="1" height="1" fill="#0A1236"/><rect x="1" y="13" width="2" height="1" fill="#7FB3FF"/><rect x="3" y="13" width="2" height="1" fill="#0E1A5A"/><rect x="5" y="13" width="1" height="1" fill="#050A1E"/><rect x="6" y="13" width="2" height="1" fill="#9ADBFF"/><rect x="8" y="13" width="1" height="1" fill="#4DB5FF"/><rect x="9" y="13" width="1" height="1" fill="#4ADE80"/><rect x="10" y="13" width="3" height="1" fill="#4DB5FF"/><rect x="13" y="13" width="6" height="1" fill="#050A1E"/><rect x="19" y="13" width="5" height="1" fill="#3A8BF0"/><rect x="24" y="13" width="2" height="1" fill="#5B5BEA"/><rect x="26" y="13" width="1" height="1" fill="#050A1E"/><rect x="27" y="13" width="2" height="1" fill="#1A1470"/><rect x="29" y="13" width="2" height="1" fill="#1E4BB8"/><rect x="31" y="13" width="1" height="1" fill="#0A1236"/><rect x="0" y="14" width="1" height="1" fill="#0A1236"/><rect x="1" y="14" width="1" height="1" fill="#7FB3FF"/><rect x="2" y="14" width="1" height="1" fill="#0B1445"/><rect x="3" y="14" width="2" height="1" fill="#0E1A5A"/><rect x="5" y="14" width="1" height="1" fill="#050A1E"/><rect x="6" y="14" width="6" height="1" fill="#4DB5FF"/><rect x="12" y="14" width="8" height="1" fill="#050A1E"/><rect x="20" y="14" width="2" height="1" fill="#3A8BF0"/><rect x="22" y="14" width="1" height="1" fill="#4ADE80"/><rect x="23" y="14" width="3" height="1" fill="#5B5BEA"/><rect x="26" y="14" width="1" height="1" fill="#050A1E"/><rect x="27" y="14" width="2" height="1" fill="#1A1470"/><rect x="29" y="14" width="1" height="1" fill="#0B1445"/><rect x="30" y="14" width="1" height="1" fill="#1E4BB8"/><rect x="31" y="14" width="1" height="1" fill="#0A1236"/><rect x="0" y="15" width="1" height="1" fill="#0A1236"/><rect x="1" y="15" width="1" height="1" fill="#7FB3FF"/><rect x="2" y="15" width="1" height="1" fill="#0B1445"/><rect x="3" y="15" width="2" height="1" fill="#0E1A5A"/><rect x="5" y="15" width="1" height="1" fill="#050A1E"/><rect x="6" y="15" width="4" height="1" fill="#4DB5FF"/><rect x="10" y="15" width="1" height="1" fill="#FFFFFF"/><rect x="11" y="15" width="1" height="1" fill="#4DB5FF"/><rect x="12" y="15" width="8" height="1" fill="#050A1E"/><rect x="20" y="15" width="1" height="1" fill="#3A8BF0"/><rect x="21" y="15" width="5" height="1" fill="#5B5BEA"/><rect x="26" y="15" width="1" height="1" fill="#050A1E"/><rect x="27" y="15" width="1" height="1" fill="#7FA8FF"/><rect x="28" y="15" width="1" height="1" fill="#1A1470"/><rect x="29" y="15" width="1" height="1" fill="#0B1445"/><rect x="30" y="15" width="1" height="1" fill="#1E4BB8"/><rect x="31" y="15" width="1" height="1" fill="#0A1236"/><rect x="0" y="16" width="1" height="1" fill="#0A1236"/><rect x="1" y="16" width="1" height="1" fill="#7FB3FF"/><rect x="2" y="16" width="1" height="1" fill="#0B1445"/><rect x="3" y="16" width="2" height="1" fill="#0E1A5A"/><rect x="5" y="16" width="1" height="1" fill="#050A1E"/><rect x="6" y="16" width="6" height="1" fill="#4DB5FF"/><rect x="12" y="16" width="1" height="1" fill="#3A8BF0"/><rect x="13" y="16" width="6" height="1" fill="#050A1E"/><rect x="19" y="16" width="1" height="1" fill="#3A8BF0"/><rect x="20" y="16" width="6" height="1" fill="#5B5BEA"/><rect x="26" y="16" width="1" height="1" fill="#050A1E"/><rect x="27" y="16" width="2" height="1" fill="#1A1470"/><rect x="29" y="16" width="1" height="1" fill="#0B1445"/><rect x="30" y="16" width="1" height="1" fill="#1E4BB8"/><rect x="31" y="16" width="1" height="1" fill="#0A1236"/><rect x="0" y="17" width="1" height="1" fill="#0A1236"/><rect x="1" y="17" width="1" height="1" fill="#7FB3FF"/><rect x="2" y="17" width="1" height="1" fill="#0B1445"/><rect x="3" y="17" width="2" height="1" fill="#0E1A5A"/><rect x="5" y="17" width="1" height="1" fill="#050A1E"/><rect x="6" y="17" width="5" height="1" fill="#4DB5FF"/><rect x="11" y="17" width="8" height="1" fill="#3A8BF0"/><rect x="19" y="17" width="4" height="1" fill="#5B5BEA"/><rect x="23" y="17" width="1" height="1" fill="#FFFFFF"/><rect x="24" y="17" width="2" height="1" fill="#5B5BEA"/><rect x="26" y="17" width="1" height="1" fill="#050A1E"/><rect x="27" y="17" width="2" height="1" fill="#1A1470"/><rect x="29" y="17" width="1" height="1" fill="#0B1445"/><rect x="30" y="17" width="1" height="1" fill="#1E4BB8"/><rect x="31" y="17" width="1" height="1" fill="#0A1236"/><rect x="0" y="18" width="1" height="1" fill="#0A1236"/><rect x="1" y="18" width="2" height="1" fill="#7FB3FF"/><rect x="3" y="18" width="1" height="1" fill="#0E1A5A"/><rect x="4" y="18" width="1" height="1" fill="#101760"/><rect x="5" y="18" width="1" height="1" fill="#050A1E"/><rect x="6" y="18" width="1" height="1" fill="#E0A33A"/><rect x="7" y="18" width="3" height="1" fill="#4DB5FF"/><rect x="10" y="18" width="8" height="1" fill="#3A8BF0"/><rect x="18" y="18" width="7" height="1" fill="#5B5BEA"/><rect x="25" y="18" width="1" height="1" fill="#E0A33A"/><rect x="26" y="18" width="1" height="1" fill="#050A1E"/><rect x="27" y="18" width="2" height="1" fill="#1A1470"/><rect x="29" y="18" width="2" height="1" fill="#1E4BB8"/><rect x="31" y="18" width="1" height="1" fill="#0A1236"/><rect x="0" y="19" width="1" height="1" fill="#0A1236"/><rect x="1" y="19" width="2" height="1" fill="#7FB3FF"/><rect x="3" y="19" width="1" height="1" fill="#0B1445"/><rect x="4" y="19" width="1" height="1" fill="#101760"/><rect x="5" y="19" width="1" height="1" fill="#050A1E"/><rect x="6" y="19" width="1" height="1" fill="#B97A22"/><rect x="7" y="19" width="2" height="1" fill="#4DB5FF"/><rect x="9" y="19" width="8" height="1" fill="#3A8BF0"/><rect x="17" y="19" width="1" height="1" fill="#5B5BEA"/><rect x="18" y="19" width="1" height="1" fill="#F5B83D"/><rect x="19" y="19" width="6" height="1" fill="#5B5BEA"/><rect x="25" y="19" width="1" height="1" fill="#B97A22"/><rect x="26" y="19" width="1" height="1" fill="#050A1E"/><rect x="27" y="19" width="1" height="1" fill="#1A1470"/><rect x="28" y="19" width="1" height="1" fill="#0B1445"/><rect x="29" y="19" width="2" height="1" fill="#1E4BB8"/><rect x="31" y="19" width="1" height="1" fill="#0A1236"/><rect x="1" y="20" width="1" height="1" fill="#0A1236"/><rect x="2" y="20" width="1" height="1" fill="#2F6FED"/><rect x="3" y="20" width="1" height="1" fill="#0B1445"/><rect x="4" y="20" width="1" height="1" fill="#101760"/><rect x="5" y="20" width="1" height="1" fill="#050A1E"/><rect x="6" y="20" width="1" height="1" fill="#8A5A1C"/><rect x="7" y="20" width="1" height="1" fill="#5B5BEA"/><rect x="8" y="20" width="6" height="1" fill="#3A8BF0"/><rect x="14" y="20" width="1" height="1" fill="#FF8DA1"/><rect x="15" y="20" width="1" height="1" fill="#3A8BF0"/><rect x="16" y="20" width="7" height="1" fill="#5B5BEA"/><rect x="23" y="20" width="1" height="1" fill="#7A3FD8"/><rect x="24" y="20" width="1" height="1" fill="#3A8BF0"/><rect x="25" y="20" width="1" height="1" fill="#8A5A1C"/><rect x="26" y="20" width="1" height="1" fill="#050A1E"/><rect x="27" y="20" width="1" height="1" fill="#1A1470"/><rect x="28" y="20" width="1" height="1" fill="#0B1445"/><rect x="29" y="20" width="1" height="1" fill="#1E4BB8"/><rect x="30" y="20" width="1" height="1" fill="#0A1236"/><rect x="1" y="21" width="1" height="1" fill="#0A1236"/><rect x="2" y="21" width="2" height="1" fill="#2F6FED"/><rect x="4" y="21" width="1" height="1" fill="#101760"/><rect x="5" y="21" width="2" height="1" fill="#050A1E"/><rect x="7" y="21" width="1" height="1" fill="#3A8BF0"/><rect x="8" y="21" width="2" height="1" fill="#E0A33A"/><rect x="10" y="21" width="5" height="1" fill="#3A8BF0"/><rect x="15" y="21" width="7" height="1" fill="#5B5BEA"/><rect x="22" y="21" width="2" height="1" fill="#E0A33A"/><rect x="24" y="21" width="1" height="1" fill="#B97A22"/><rect x="25" y="21" width="2" height="1" fill="#050A1E"/><rect x="27" y="21" width="1" height="1" fill="#26137F"/><rect x="28" y="21" width="2" height="1" fill="#1E4BB8"/><rect x="30" y="21" width="1" height="1" fill="#0A1236"/><rect x="1" y="22" width="1" height="1" fill="#0A1236"/><rect x="2" y="22" width="2" height="1" fill="#2F6FED"/><rect x="4" y="22" width="1" height="1" fill="#0B1445"/><rect x="5" y="22" width="1" height="1" fill="#101760"/><rect x="6" y="22" width="2" height="1" fill="#050A1E"/><rect x="8" y="22" width="2" height="1" fill="#B97A22"/><rect x="10" y="22" width="1" height="1" fill="#E0A33A"/><rect x="11" y="22" width="1" height="1" fill="#5B5BEA"/><rect x="12" y="22" width="1" height="1" fill="#3A8BF0"/><rect x="13" y="22" width="8" height="1" fill="#5B5BEA"/><rect x="21" y="22" width="1" height="1" fill="#E0A33A"/><rect x="22" y="22" width="2" height="1" fill="#B97A22"/><rect x="24" y="22" width="2" height="1" fill="#050A1E"/><rect x="26" y="22" width="1" height="1" fill="#26137F"/><rect x="27" y="22" width="1" height="1" fill="#0B1445"/><rect x="28" y="22" width="2" height="1" fill="#1E4BB8"/><rect x="30" y="22" width="1" height="1" fill="#0A1236"/><rect x="2" y="23" width="1" height="1" fill="#0A1236"/><rect x="3" y="23" width="2" height="1" fill="#2F6FED"/><rect x="5" y="23" width="1" height="1" fill="#0B1445"/><rect x="6" y="23" width="1" height="1" fill="#101760"/><rect x="7" y="23" width="1" height="1" fill="#FFC4D6"/><rect x="8" y="23" width="1" height="1" fill="#FF8DA1"/><rect x="9" y="23" width="1" height="1" fill="#8A5A1C"/><rect x="10" y="23" width="1" height="1" fill="#B97A22"/><rect x="11" y="23" width="1" height="1" fill="#3A8BF0"/><rect x="12" y="23" width="8" height="1" fill="#E0A33A"/><rect x="20" y="23" width="1" height="1" fill="#3A8BF0"/><rect x="21" y="23" width="1" height="1" fill="#B97A22"/><rect x="22" y="23" width="1" height="1" fill="#8A5A1C"/><rect x="23" y="23" width="2" height="1" fill="#050A1E"/><rect x="25" y="23" width="1" height="1" fill="#26137F"/><rect x="26" y="23" width="1" height="1" fill="#0B1445"/><rect x="27" y="23" width="2" height="1" fill="#1E4BB8"/><rect x="29" y="23" width="1" height="1" fill="#0A1236"/><rect x="2" y="24" width="2" height="1" fill="#0A1236"/><rect x="4" y="24" width="1" height="1" fill="#2F6FED"/><rect x="5" y="24" width="1" height="1" fill="#0B1445"/><rect x="6" y="24" width="1" height="1" fill="#101760"/><rect x="7" y="24" width="1" height="1" fill="#FF8DA1"/><rect x="8" y="24" width="2" height="1" fill="#050A1E"/><rect x="10" y="24" width="2" height="1" fill="#8A5A1C"/><rect x="12" y="24" width="8" height="1" fill="#B97A22"/><rect x="20" y="24" width="2" height="1" fill="#8A5A1C"/><rect x="22" y="24" width="2" height="1" fill="#050A1E"/><rect x="24" y="24" width="2" height="1" fill="#26137F"/><rect x="26" y="24" width="1" height="1" fill="#0B1445"/><rect x="27" y="24" width="1" height="1" fill="#1E4BB8"/><rect x="28" y="24" width="2" height="1" fill="#0A1236"/><rect x="3" y="25" width="1" height="1" fill="#0A1236"/><rect x="4" y="25" width="2" height="1" fill="#2F6FED"/><rect x="6" y="25" width="1" height="1" fill="#0B1445"/><rect x="7" y="25" width="2" height="1" fill="#101760"/><rect x="9" y="25" width="4" height="1" fill="#050A1E"/><rect x="13" y="25" width="6" height="1" fill="#8A5A1C"/><rect x="19" y="25" width="4" height="1" fill="#050A1E"/><rect x="23" y="25" width="1" height="1" fill="#26137F"/><rect x="24" y="25" width="1" height="1" fill="#7FA8FF"/><rect x="25" y="25" width="1" height="1" fill="#0B1445"/><rect x="26" y="25" width="2" height="1" fill="#1E4BB8"/><rect x="28" y="25" width="1" height="1" fill="#0A1236"/><rect x="4" y="26" width="1" height="1" fill="#0A1236"/><rect x="5" y="26" width="2" height="1" fill="#2F6FED"/><rect x="7" y="26" width="2" height="1" fill="#0B1445"/><rect x="9" y="26" width="1" height="1" fill="#101760"/><rect x="10" y="26" width="2" height="1" fill="#1A1470"/><rect x="12" y="26" width="8" height="1" fill="#050A1E"/><rect x="20" y="26" width="2" height="1" fill="#1A1470"/><rect x="22" y="26" width="1" height="1" fill="#26137F"/><rect x="23" y="26" width="2" height="1" fill="#0B1445"/><rect x="25" y="26" width="2" height="1" fill="#1E4BB8"/><rect x="27" y="26" width="1" height="1" fill="#0A1236"/><rect x="5" y="27" width="1" height="1" fill="#0A1236"/><rect x="6" y="27" width="1" height="1" fill="#2F6FED"/><rect x="7" y="27" width="2" height="1" fill="#1E4BB8"/><rect x="9" y="27" width="1" height="1" fill="#0B1445"/><rect x="10" y="27" width="1" height="1" fill="#7FA8FF"/><rect x="11" y="27" width="10" height="1" fill="#1A1470"/><rect x="21" y="27" width="1" height="1" fill="#26137F"/><rect x="22" y="27" width="1" height="1" fill="#0B1445"/><rect x="23" y="27" width="3" height="1" fill="#1E4BB8"/><rect x="26" y="27" width="1" height="1" fill="#0A1236"/><rect x="6" y="28" width="2" height="1" fill="#0A1236"/><rect x="8" y="28" width="3" height="1" fill="#1E4BB8"/><rect x="11" y="28" width="2" height="1" fill="#0B1445"/><rect x="13" y="28" width="6" height="1" fill="#1A1470"/><rect x="19" y="28" width="2" height="1" fill="#0B1445"/><rect x="21" y="28" width="3" height="1" fill="#1E4BB8"/><rect x="24" y="28" width="2" height="1" fill="#0A1236"/><rect x="7" y="29" width="2" height="1" fill="#0A1236"/><rect x="9" y="29" width="5" height="1" fill="#1E4BB8"/><rect x="14" y="29" width="4" height="1" fill="#0B1445"/><rect x="18" y="29" width="5" height="1" fill="#1E4BB8"/><rect x="23" y="29" width="2" height="1" fill="#0A1236"/><rect x="9" y="30" width="3" height="1" fill="#0A1236"/><rect x="12" y="30" width="8" height="1" fill="#1E4BB8"/><rect x="20" y="30" width="3" height="1" fill="#0A1236"/><rect x="12" y="31" width="8" height="1" fill="#0A1236"/></svg>
